<?xml version="1.0" encoding="utf-8" standalone="no"?>
<!DOCTYPE svg PUBLIC "-//W3C//DTD SVG 1.1//EN"
  "http://www.w3.org/Graphics/SVG/1.1/DTD/svg11.dtd">
<!-- Created with matplotlib (https://matplotlib.org/) -->
<svg height="345.6pt" version="1.1" viewBox="0 0 460.8 345.6" width="460.8pt" xmlns="http://www.w3.org/2000/svg" xmlns:xlink="http://www.w3.org/1999/xlink">
 <metadata>
  <rdf:RDF xmlns:cc="http://creativecommons.org/ns#" xmlns:dc="http://purl.org/dc/elements/1.1/" xmlns:rdf="http://www.w3.org/1999/02/22-rdf-syntax-ns#">
   <cc:Work>
    <dc:type rdf:resource="http://purl.org/dc/dcmitype/StillImage"/>
    <dc:date>2021-04-09T23:18:12.292178</dc:date>
    <dc:format>image/svg+xml</dc:format>
    <dc:creator>
     <cc:Agent>
      <dc:title>Matplotlib v3.3.4, https://matplotlib.org/</dc:title>
     </cc:Agent>
    </dc:creator>
   </cc:Work>
  </rdf:RDF>
 </metadata>
 <defs>
  <style type="text/css">*{stroke-linecap:butt;stroke-linejoin:round;}</style>
 </defs>
 <g id="figure_1">
  <g id="patch_1">
   <path d="M 0 345.6 
L 460.8 345.6 
L 460.8 0 
L 0 0 
z
" style="fill:#ffffff;"/>
  </g>
  <g id="axes_1">
   <g id="patch_2">
    <path d="M 157.828564 307.584 
L 314.491436 307.584 
L 314.491436 41.472 
L 157.828564 41.472 
z
" style="fill:#ffffff;"/>
   </g>
   <g id="matplotlib.axis_1">
    <g id="xtick_1">
     <g id="line2d_1">
      <defs>
       <path d="M 0 0 
L 0 3.5 
" id="maebf89da44" style="stroke:#000000;stroke-width:0.8;"/>
      </defs>
      <g>
       <use style="stroke:#000000;stroke-width:0.8;" x="178.001412" xlink:href="#maebf89da44" y="307.584"/>
      </g>
     </g>
     <g id="text_1">
      <!-- 3000 -->
      <g transform="translate(165.276412 322.182437)scale(0.1 -0.1)">
       <defs>
        <path d="M 40.578125 39.3125 
Q 47.65625 37.796875 51.625 33 
Q 55.609375 28.21875 55.609375 21.1875 
Q 55.609375 10.40625 48.1875 4.484375 
Q 40.765625 -1.421875 27.09375 -1.421875 
Q 22.515625 -1.421875 17.65625 -0.515625 
Q 12.796875 0.390625 7.625 2.203125 
L 7.625 11.71875 
Q 11.71875 9.328125 16.59375 8.109375 
Q 21.484375 6.890625 26.8125 6.890625 
Q 36.078125 6.890625 40.9375 10.546875 
Q 45.796875 14.203125 45.796875 21.1875 
Q 45.796875 27.640625 41.28125 31.265625 
Q 36.765625 34.90625 28.71875 34.90625 
L 20.21875 34.90625 
L 20.21875 43.015625 
L 29.109375 43.015625 
Q 36.375 43.015625 40.234375 45.921875 
Q 44.09375 48.828125 44.09375 54.296875 
Q 44.09375 59.90625 40.109375 62.90625 
Q 36.140625 65.921875 28.71875 65.921875 
Q 24.65625 65.921875 20.015625 65.03125 
Q 15.375 64.15625 9.8125 62.3125 
L 9.8125 71.09375 
Q 15.4375 72.65625 20.34375 73.4375 
Q 25.25 74.21875 29.59375 74.21875 
Q 40.828125 74.21875 47.359375 69.109375 
Q 53.90625 64.015625 53.90625 55.328125 
Q 53.90625 49.265625 50.4375 45.09375 
Q 46.96875 40.921875 40.578125 39.3125 
z
" id="DejaVuSans-51"/>
        <path d="M 31.78125 66.40625 
Q 24.171875 66.40625 20.328125 58.90625 
Q 16.5 51.421875 16.5 36.375 
Q 16.5 21.390625 20.328125 13.890625 
Q 24.171875 6.390625 31.78125 6.390625 
Q 39.453125 6.390625 43.28125 13.890625 
Q 47.125 21.390625 47.125 36.375 
Q 47.125 51.421875 43.28125 58.90625 
Q 39.453125 66.40625 31.78125 66.40625 
z
M 31.78125 74.21875 
Q 44.046875 74.21875 50.515625 64.515625 
Q 56.984375 54.828125 56.984375 36.375 
Q 56.984375 17.96875 50.515625 8.265625 
Q 44.046875 -1.421875 31.78125 -1.421875 
Q 19.53125 -1.421875 13.0625 8.265625 
Q 6.59375 17.96875 6.59375 36.375 
Q 6.59375 54.828125 13.0625 64.515625 
Q 19.53125 74.21875 31.78125 74.21875 
z
" id="DejaVuSans-48"/>
       </defs>
       <use xlink:href="#DejaVuSans-51"/>
       <use x="63.623047" xlink:href="#DejaVuSans-48"/>
       <use x="127.246094" xlink:href="#DejaVuSans-48"/>
       <use x="190.869141" xlink:href="#DejaVuSans-48"/>
      </g>
     </g>
    </g>
    <g id="xtick_2">
     <g id="line2d_2">
      <g>
       <use style="stroke:#000000;stroke-width:0.8;" x="221.124407" xlink:href="#maebf89da44" y="307.584"/>
      </g>
     </g>
     <g id="text_2">
      <!-- 4000 -->
      <g transform="translate(208.399407 322.182437)scale(0.1 -0.1)">
       <defs>
        <path d="M 37.796875 64.3125 
L 12.890625 25.390625 
L 37.796875 25.390625 
z
M 35.203125 72.90625 
L 47.609375 72.90625 
L 47.609375 25.390625 
L 58.015625 25.390625 
L 58.015625 17.1875 
L 47.609375 17.1875 
L 47.609375 0 
L 37.796875 0 
L 37.796875 17.1875 
L 4.890625 17.1875 
L 4.890625 26.703125 
z
" id="DejaVuSans-52"/>
       </defs>
       <use xlink:href="#DejaVuSans-52"/>
       <use x="63.623047" xlink:href="#DejaVuSans-48"/>
       <use x="127.246094" xlink:href="#DejaVuSans-48"/>
       <use x="190.869141" xlink:href="#DejaVuSans-48"/>
      </g>
     </g>
    </g>
    <g id="xtick_3">
     <g id="line2d_3">
      <g>
       <use style="stroke:#000000;stroke-width:0.8;" x="264.247402" xlink:href="#maebf89da44" y="307.584"/>
      </g>
     </g>
     <g id="text_3">
      <!-- 5000 -->
      <g transform="translate(251.522402 322.182437)scale(0.1 -0.1)">
       <defs>
        <path d="M 10.796875 72.90625 
L 49.515625 72.90625 
L 49.515625 64.59375 
L 19.828125 64.59375 
L 19.828125 46.734375 
Q 21.96875 47.46875 24.109375 47.828125 
Q 26.265625 48.1875 28.421875 48.1875 
Q 40.625 48.1875 47.75 41.5 
Q 54.890625 34.8125 54.890625 23.390625 
Q 54.890625 11.625 47.5625 5.09375 
Q 40.234375 -1.421875 26.90625 -1.421875 
Q 22.3125 -1.421875 17.546875 -0.640625 
Q 12.796875 0.140625 7.71875 1.703125 
L 7.71875 11.625 
Q 12.109375 9.234375 16.796875 8.0625 
Q 21.484375 6.890625 26.703125 6.890625 
Q 35.15625 6.890625 40.078125 11.328125 
Q 45.015625 15.765625 45.015625 23.390625 
Q 45.015625 31 40.078125 35.4375 
Q 35.15625 39.890625 26.703125 39.890625 
Q 22.75 39.890625 18.8125 39.015625 
Q 14.890625 38.140625 10.796875 36.28125 
z
" id="DejaVuSans-53"/>
       </defs>
       <use xlink:href="#DejaVuSans-53"/>
       <use x="63.623047" xlink:href="#DejaVuSans-48"/>
       <use x="127.246094" xlink:href="#DejaVuSans-48"/>
       <use x="190.869141" xlink:href="#DejaVuSans-48"/>
      </g>
     </g>
    </g>
    <g id="xtick_4">
     <g id="line2d_4">
      <g>
       <use style="stroke:#000000;stroke-width:0.8;" x="307.370396" xlink:href="#maebf89da44" y="307.584"/>
      </g>
     </g>
     <g id="text_4">
      <!-- 6000 -->
      <g transform="translate(294.645396 322.182437)scale(0.1 -0.1)">
       <defs>
        <path d="M 33.015625 40.375 
Q 26.375 40.375 22.484375 35.828125 
Q 18.609375 31.296875 18.609375 23.390625 
Q 18.609375 15.53125 22.484375 10.953125 
Q 26.375 6.390625 33.015625 6.390625 
Q 39.65625 6.390625 43.53125 10.953125 
Q 47.40625 15.53125 47.40625 23.390625 
Q 47.40625 31.296875 43.53125 35.828125 
Q 39.65625 40.375 33.015625 40.375 
z
M 52.59375 71.296875 
L 52.59375 62.3125 
Q 48.875 64.0625 45.09375 64.984375 
Q 41.3125 65.921875 37.59375 65.921875 
Q 27.828125 65.921875 22.671875 59.328125 
Q 17.53125 52.734375 16.796875 39.40625 
Q 19.671875 43.65625 24.015625 45.921875 
Q 28.375 48.1875 33.59375 48.1875 
Q 44.578125 48.1875 50.953125 41.515625 
Q 57.328125 34.859375 57.328125 23.390625 
Q 57.328125 12.15625 50.6875 5.359375 
Q 44.046875 -1.421875 33.015625 -1.421875 
Q 20.359375 -1.421875 13.671875 8.265625 
Q 6.984375 17.96875 6.984375 36.375 
Q 6.984375 53.65625 15.1875 63.9375 
Q 23.390625 74.21875 37.203125 74.21875 
Q 40.921875 74.21875 44.703125 73.484375 
Q 48.484375 72.75 52.59375 71.296875 
z
" id="DejaVuSans-54"/>
       </defs>
       <use xlink:href="#DejaVuSans-54"/>
       <use x="63.623047" xlink:href="#DejaVuSans-48"/>
       <use x="127.246094" xlink:href="#DejaVuSans-48"/>
       <use x="190.869141" xlink:href="#DejaVuSans-48"/>
      </g>
     </g>
    </g>
    <g id="text_5">
     <!-- Velocity (m/s) -->
     <g transform="translate(201.894375 335.860562)scale(0.1 -0.1)">
      <defs>
       <path d="M 28.609375 0 
L 0.78125 72.90625 
L 11.078125 72.90625 
L 34.1875 11.53125 
L 57.328125 72.90625 
L 67.578125 72.90625 
L 39.796875 0 
z
" id="DejaVuSans-86"/>
       <path d="M 56.203125 29.59375 
L 56.203125 25.203125 
L 14.890625 25.203125 
Q 15.484375 15.921875 20.484375 11.0625 
Q 25.484375 6.203125 34.421875 6.203125 
Q 39.59375 6.203125 44.453125 7.46875 
Q 49.3125 8.734375 54.109375 11.28125 
L 54.109375 2.78125 
Q 49.265625 0.734375 44.1875 -0.34375 
Q 39.109375 -1.421875 33.890625 -1.421875 
Q 20.796875 -1.421875 13.15625 6.1875 
Q 5.515625 13.8125 5.515625 26.8125 
Q 5.515625 40.234375 12.765625 48.109375 
Q 20.015625 56 32.328125 56 
Q 43.359375 56 49.78125 48.890625 
Q 56.203125 41.796875 56.203125 29.59375 
z
M 47.21875 32.234375 
Q 47.125 39.59375 43.09375 43.984375 
Q 39.0625 48.390625 32.421875 48.390625 
Q 24.90625 48.390625 20.390625 44.140625 
Q 15.875 39.890625 15.1875 32.171875 
z
" id="DejaVuSans-101"/>
       <path d="M 9.421875 75.984375 
L 18.40625 75.984375 
L 18.40625 0 
L 9.421875 0 
z
" id="DejaVuSans-108"/>
       <path d="M 30.609375 48.390625 
Q 23.390625 48.390625 19.1875 42.75 
Q 14.984375 37.109375 14.984375 27.296875 
Q 14.984375 17.484375 19.15625 11.84375 
Q 23.34375 6.203125 30.609375 6.203125 
Q 37.796875 6.203125 41.984375 11.859375 
Q 46.1875 17.53125 46.1875 27.296875 
Q 46.1875 37.015625 41.984375 42.703125 
Q 37.796875 48.390625 30.609375 48.390625 
z
M 30.609375 56 
Q 42.328125 56 49.015625 48.375 
Q 55.71875 40.765625 55.71875 27.296875 
Q 55.71875 13.875 49.015625 6.21875 
Q 42.328125 -1.421875 30.609375 -1.421875 
Q 18.84375 -1.421875 12.171875 6.21875 
Q 5.515625 13.875 5.515625 27.296875 
Q 5.515625 40.765625 12.171875 48.375 
Q 18.84375 56 30.609375 56 
z
" id="DejaVuSans-111"/>
       <path d="M 48.78125 52.59375 
L 48.78125 44.1875 
Q 44.96875 46.296875 41.140625 47.34375 
Q 37.3125 48.390625 33.40625 48.390625 
Q 24.65625 48.390625 19.8125 42.84375 
Q 14.984375 37.3125 14.984375 27.296875 
Q 14.984375 17.28125 19.8125 11.734375 
Q 24.65625 6.203125 33.40625 6.203125 
Q 37.3125 6.203125 41.140625 7.25 
Q 44.96875 8.296875 48.78125 10.40625 
L 48.78125 2.09375 
Q 45.015625 0.34375 40.984375 -0.53125 
Q 36.96875 -1.421875 32.421875 -1.421875 
Q 20.0625 -1.421875 12.78125 6.34375 
Q 5.515625 14.109375 5.515625 27.296875 
Q 5.515625 40.671875 12.859375 48.328125 
Q 20.21875 56 33.015625 56 
Q 37.15625 56 41.109375 55.140625 
Q 45.0625 54.296875 48.78125 52.59375 
z
" id="DejaVuSans-99"/>
       <path d="M 9.421875 54.6875 
L 18.40625 54.6875 
L 18.40625 0 
L 9.421875 0 
z
M 9.421875 75.984375 
L 18.40625 75.984375 
L 18.40625 64.59375 
L 9.421875 64.59375 
z
" id="DejaVuSans-105"/>
       <path d="M 18.3125 70.21875 
L 18.3125 54.6875 
L 36.8125 54.6875 
L 36.8125 47.703125 
L 18.3125 47.703125 
L 18.3125 18.015625 
Q 18.3125 11.328125 20.140625 9.421875 
Q 21.96875 7.515625 27.59375 7.515625 
L 36.8125 7.515625 
L 36.8125 0 
L 27.59375 0 
Q 17.1875 0 13.234375 3.875 
Q 9.28125 7.765625 9.28125 18.015625 
L 9.28125 47.703125 
L 2.6875 47.703125 
L 2.6875 54.6875 
L 9.28125 54.6875 
L 9.28125 70.21875 
z
" id="DejaVuSans-116"/>
       <path d="M 32.171875 -5.078125 
Q 28.375 -14.84375 24.75 -17.8125 
Q 21.140625 -20.796875 15.09375 -20.796875 
L 7.90625 -20.796875 
L 7.90625 -13.28125 
L 13.1875 -13.28125 
Q 16.890625 -13.28125 18.9375 -11.515625 
Q 21 -9.765625 23.484375 -3.21875 
L 25.09375 0.875 
L 2.984375 54.6875 
L 12.5 54.6875 
L 29.59375 11.921875 
L 46.6875 54.6875 
L 56.203125 54.6875 
z
" id="DejaVuSans-121"/>
       <path id="DejaVuSans-32"/>
       <path d="M 31 75.875 
Q 24.46875 64.65625 21.28125 53.65625 
Q 18.109375 42.671875 18.109375 31.390625 
Q 18.109375 20.125 21.3125 9.0625 
Q 24.515625 -2 31 -13.1875 
L 23.1875 -13.1875 
Q 15.875 -1.703125 12.234375 9.375 
Q 8.59375 20.453125 8.59375 31.390625 
Q 8.59375 42.28125 12.203125 53.3125 
Q 15.828125 64.359375 23.1875 75.875 
z
" id="DejaVuSans-40"/>
       <path d="M 52 44.1875 
Q 55.375 50.25 60.0625 53.125 
Q 64.75 56 71.09375 56 
Q 79.640625 56 84.28125 50.015625 
Q 88.921875 44.046875 88.921875 33.015625 
L 88.921875 0 
L 79.890625 0 
L 79.890625 32.71875 
Q 79.890625 40.578125 77.09375 44.375 
Q 74.3125 48.1875 68.609375 48.1875 
Q 61.625 48.1875 57.5625 43.546875 
Q 53.515625 38.921875 53.515625 30.90625 
L 53.515625 0 
L 44.484375 0 
L 44.484375 32.71875 
Q 44.484375 40.625 41.703125 44.40625 
Q 38.921875 48.1875 33.109375 48.1875 
Q 26.21875 48.1875 22.15625 43.53125 
Q 18.109375 38.875 18.109375 30.90625 
L 18.109375 0 
L 9.078125 0 
L 9.078125 54.6875 
L 18.109375 54.6875 
L 18.109375 46.1875 
Q 21.1875 51.21875 25.484375 53.609375 
Q 29.78125 56 35.6875 56 
Q 41.65625 56 45.828125 52.96875 
Q 50 49.953125 52 44.1875 
z
" id="DejaVuSans-109"/>
       <path d="M 25.390625 72.90625 
L 33.6875 72.90625 
L 8.296875 -9.28125 
L 0 -9.28125 
z
" id="DejaVuSans-47"/>
       <path d="M 44.28125 53.078125 
L 44.28125 44.578125 
Q 40.484375 46.53125 36.375 47.5 
Q 32.28125 48.484375 27.875 48.484375 
Q 21.1875 48.484375 17.84375 46.4375 
Q 14.5 44.390625 14.5 40.28125 
Q 14.5 37.15625 16.890625 35.375 
Q 19.28125 33.59375 26.515625 31.984375 
L 29.59375 31.296875 
Q 39.15625 29.25 43.1875 25.515625 
Q 47.21875 21.78125 47.21875 15.09375 
Q 47.21875 7.46875 41.1875 3.015625 
Q 35.15625 -1.421875 24.609375 -1.421875 
Q 20.21875 -1.421875 15.453125 -0.5625 
Q 10.6875 0.296875 5.421875 2 
L 5.421875 11.28125 
Q 10.40625 8.6875 15.234375 7.390625 
Q 20.0625 6.109375 24.8125 6.109375 
Q 31.15625 6.109375 34.5625 8.28125 
Q 37.984375 10.453125 37.984375 14.40625 
Q 37.984375 18.0625 35.515625 20.015625 
Q 33.0625 21.96875 24.703125 23.78125 
L 21.578125 24.515625 
Q 13.234375 26.265625 9.515625 29.90625 
Q 5.8125 33.546875 5.8125 39.890625 
Q 5.8125 47.609375 11.28125 51.796875 
Q 16.75 56 26.8125 56 
Q 31.78125 56 36.171875 55.265625 
Q 40.578125 54.546875 44.28125 53.078125 
z
" id="DejaVuSans-115"/>
       <path d="M 8.015625 75.875 
L 15.828125 75.875 
Q 23.140625 64.359375 26.78125 53.3125 
Q 30.421875 42.28125 30.421875 31.390625 
Q 30.421875 20.453125 26.78125 9.375 
Q 23.140625 -1.703125 15.828125 -13.1875 
L 8.015625 -13.1875 
Q 14.5 -2 17.703125 9.0625 
Q 20.90625 20.125 20.90625 31.390625 
Q 20.90625 42.671875 17.703125 53.65625 
Q 14.5 64.65625 8.015625 75.875 
z
" id="DejaVuSans-41"/>
      </defs>
      <use xlink:href="#DejaVuSans-86"/>
      <use x="60.658203" xlink:href="#DejaVuSans-101"/>
      <use x="122.181641" xlink:href="#DejaVuSans-108"/>
      <use x="149.964844" xlink:href="#DejaVuSans-111"/>
      <use x="211.146484" xlink:href="#DejaVuSans-99"/>
      <use x="266.126953" xlink:href="#DejaVuSans-105"/>
      <use x="293.910156" xlink:href="#DejaVuSans-116"/>
      <use x="333.119141" xlink:href="#DejaVuSans-121"/>
      <use x="392.298828" xlink:href="#DejaVuSans-32"/>
      <use x="424.085938" xlink:href="#DejaVuSans-40"/>
      <use x="463.099609" xlink:href="#DejaVuSans-109"/>
      <use x="560.511719" xlink:href="#DejaVuSans-47"/>
      <use x="594.203125" xlink:href="#DejaVuSans-115"/>
      <use x="646.302734" xlink:href="#DejaVuSans-41"/>
     </g>
    </g>
   </g>
   <g id="matplotlib.axis_2">
    <g id="ytick_1">
     <g id="line2d_5">
      <defs>
       <path d="M 0 0 
L -3.5 0 
" id="m079776a337" style="stroke:#000000;stroke-width:0.8;"/>
      </defs>
      <g>
       <use style="stroke:#000000;stroke-width:0.8;" x="157.828564" xlink:href="#m079776a337" y="53.568"/>
      </g>
     </g>
     <g id="text_6">
      <!-- 0 -->
      <g transform="translate(144.466064 57.367219)scale(0.1 -0.1)">
       <use xlink:href="#DejaVuSans-48"/>
      </g>
     </g>
    </g>
    <g id="ytick_2">
     <g id="line2d_6">
      <g>
       <use style="stroke:#000000;stroke-width:0.8;" x="157.828564" xlink:href="#m079776a337" y="85.910246"/>
      </g>
     </g>
     <g id="text_7">
      <!-- 250 -->
      <g transform="translate(131.741064 89.709465)scale(0.1 -0.1)">
       <defs>
        <path d="M 19.1875 8.296875 
L 53.609375 8.296875 
L 53.609375 0 
L 7.328125 0 
L 7.328125 8.296875 
Q 12.9375 14.109375 22.625 23.890625 
Q 32.328125 33.6875 34.8125 36.53125 
Q 39.546875 41.84375 41.421875 45.53125 
Q 43.3125 49.21875 43.3125 52.78125 
Q 43.3125 58.59375 39.234375 62.25 
Q 35.15625 65.921875 28.609375 65.921875 
Q 23.96875 65.921875 18.8125 64.3125 
Q 13.671875 62.703125 7.8125 59.421875 
L 7.8125 69.390625 
Q 13.765625 71.78125 18.9375 73 
Q 24.125 74.21875 28.421875 74.21875 
Q 39.75 74.21875 46.484375 68.546875 
Q 53.21875 62.890625 53.21875 53.421875 
Q 53.21875 48.921875 51.53125 44.890625 
Q 49.859375 40.875 45.40625 35.40625 
Q 44.1875 33.984375 37.640625 27.21875 
Q 31.109375 20.453125 19.1875 8.296875 
z
" id="DejaVuSans-50"/>
       </defs>
       <use xlink:href="#DejaVuSans-50"/>
       <use x="63.623047" xlink:href="#DejaVuSans-53"/>
       <use x="127.246094" xlink:href="#DejaVuSans-48"/>
      </g>
     </g>
    </g>
    <g id="ytick_3">
     <g id="line2d_7">
      <g>
       <use style="stroke:#000000;stroke-width:0.8;" x="157.828564" xlink:href="#m079776a337" y="118.252492"/>
      </g>
     </g>
     <g id="text_8">
      <!-- 500 -->
      <g transform="translate(131.741064 122.051711)scale(0.1 -0.1)">
       <use xlink:href="#DejaVuSans-53"/>
       <use x="63.623047" xlink:href="#DejaVuSans-48"/>
       <use x="127.246094" xlink:href="#DejaVuSans-48"/>
      </g>
     </g>
    </g>
    <g id="ytick_4">
     <g id="line2d_8">
      <g>
       <use style="stroke:#000000;stroke-width:0.8;" x="157.828564" xlink:href="#m079776a337" y="150.594738"/>
      </g>
     </g>
     <g id="text_9">
      <!-- 750 -->
      <g transform="translate(131.741064 154.393957)scale(0.1 -0.1)">
       <defs>
        <path d="M 8.203125 72.90625 
L 55.078125 72.90625 
L 55.078125 68.703125 
L 28.609375 0 
L 18.3125 0 
L 43.21875 64.59375 
L 8.203125 64.59375 
z
" id="DejaVuSans-55"/>
       </defs>
       <use xlink:href="#DejaVuSans-55"/>
       <use x="63.623047" xlink:href="#DejaVuSans-53"/>
       <use x="127.246094" xlink:href="#DejaVuSans-48"/>
      </g>
     </g>
    </g>
    <g id="ytick_5">
     <g id="line2d_9">
      <g>
       <use style="stroke:#000000;stroke-width:0.8;" x="157.828564" xlink:href="#m079776a337" y="182.936984"/>
      </g>
     </g>
     <g id="text_10">
      <!-- 1000 -->
      <g transform="translate(125.378564 186.736203)scale(0.1 -0.1)">
       <defs>
        <path d="M 12.40625 8.296875 
L 28.515625 8.296875 
L 28.515625 63.921875 
L 10.984375 60.40625 
L 10.984375 69.390625 
L 28.421875 72.90625 
L 38.28125 72.90625 
L 38.28125 8.296875 
L 54.390625 8.296875 
L 54.390625 0 
L 12.40625 0 
z
" id="DejaVuSans-49"/>
       </defs>
       <use xlink:href="#DejaVuSans-49"/>
       <use x="63.623047" xlink:href="#DejaVuSans-48"/>
       <use x="127.246094" xlink:href="#DejaVuSans-48"/>
       <use x="190.869141" xlink:href="#DejaVuSans-48"/>
      </g>
     </g>
    </g>
    <g id="ytick_6">
     <g id="line2d_10">
      <g>
       <use style="stroke:#000000;stroke-width:0.8;" x="157.828564" xlink:href="#m079776a337" y="215.27923"/>
      </g>
     </g>
     <g id="text_11">
      <!-- 1250 -->
      <g transform="translate(125.378564 219.078449)scale(0.1 -0.1)">
       <use xlink:href="#DejaVuSans-49"/>
       <use x="63.623047" xlink:href="#DejaVuSans-50"/>
       <use x="127.246094" xlink:href="#DejaVuSans-53"/>
       <use x="190.869141" xlink:href="#DejaVuSans-48"/>
      </g>
     </g>
    </g>
    <g id="ytick_7">
     <g id="line2d_11">
      <g>
       <use style="stroke:#000000;stroke-width:0.8;" x="157.828564" xlink:href="#m079776a337" y="247.621476"/>
      </g>
     </g>
     <g id="text_12">
      <!-- 1500 -->
      <g transform="translate(125.378564 251.420695)scale(0.1 -0.1)">
       <use xlink:href="#DejaVuSans-49"/>
       <use x="63.623047" xlink:href="#DejaVuSans-53"/>
       <use x="127.246094" xlink:href="#DejaVuSans-48"/>
       <use x="190.869141" xlink:href="#DejaVuSans-48"/>
      </g>
     </g>
    </g>
    <g id="ytick_8">
     <g id="line2d_12">
      <g>
       <use style="stroke:#000000;stroke-width:0.8;" x="157.828564" xlink:href="#m079776a337" y="279.963722"/>
      </g>
     </g>
     <g id="text_13">
      <!-- 1750 -->
      <g transform="translate(125.378564 283.762941)scale(0.1 -0.1)">
       <use xlink:href="#DejaVuSans-49"/>
       <use x="63.623047" xlink:href="#DejaVuSans-55"/>
       <use x="127.246094" xlink:href="#DejaVuSans-53"/>
       <use x="190.869141" xlink:href="#DejaVuSans-48"/>
      </g>
     </g>
    </g>
    <g id="text_14">
     <!-- Depth (m) -->
     <g transform="translate(119.298877 200.118625)rotate(-90)scale(0.1 -0.1)">
      <defs>
       <path d="M 19.671875 64.796875 
L 19.671875 8.109375 
L 31.59375 8.109375 
Q 46.6875 8.109375 53.6875 14.9375 
Q 60.6875 21.78125 60.6875 36.53125 
Q 60.6875 51.171875 53.6875 57.984375 
Q 46.6875 64.796875 31.59375 64.796875 
z
M 9.8125 72.90625 
L 30.078125 72.90625 
Q 51.265625 72.90625 61.171875 64.09375 
Q 71.09375 55.28125 71.09375 36.53125 
Q 71.09375 17.671875 61.125 8.828125 
Q 51.171875 0 30.078125 0 
L 9.8125 0 
z
" id="DejaVuSans-68"/>
       <path d="M 18.109375 8.203125 
L 18.109375 -20.796875 
L 9.078125 -20.796875 
L 9.078125 54.6875 
L 18.109375 54.6875 
L 18.109375 46.390625 
Q 20.953125 51.265625 25.265625 53.625 
Q 29.59375 56 35.59375 56 
Q 45.5625 56 51.78125 48.09375 
Q 58.015625 40.1875 58.015625 27.296875 
Q 58.015625 14.40625 51.78125 6.484375 
Q 45.5625 -1.421875 35.59375 -1.421875 
Q 29.59375 -1.421875 25.265625 0.953125 
Q 20.953125 3.328125 18.109375 8.203125 
z
M 48.6875 27.296875 
Q 48.6875 37.203125 44.609375 42.84375 
Q 40.53125 48.484375 33.40625 48.484375 
Q 26.265625 48.484375 22.1875 42.84375 
Q 18.109375 37.203125 18.109375 27.296875 
Q 18.109375 17.390625 22.1875 11.75 
Q 26.265625 6.109375 33.40625 6.109375 
Q 40.53125 6.109375 44.609375 11.75 
Q 48.6875 17.390625 48.6875 27.296875 
z
" id="DejaVuSans-112"/>
       <path d="M 54.890625 33.015625 
L 54.890625 0 
L 45.90625 0 
L 45.90625 32.71875 
Q 45.90625 40.484375 42.875 44.328125 
Q 39.84375 48.1875 33.796875 48.1875 
Q 26.515625 48.1875 22.3125 43.546875 
Q 18.109375 38.921875 18.109375 30.90625 
L 18.109375 0 
L 9.078125 0 
L 9.078125 75.984375 
L 18.109375 75.984375 
L 18.109375 46.1875 
Q 21.34375 51.125 25.703125 53.5625 
Q 30.078125 56 35.796875 56 
Q 45.21875 56 50.046875 50.171875 
Q 54.890625 44.34375 54.890625 33.015625 
z
" id="DejaVuSans-104"/>
      </defs>
      <use xlink:href="#DejaVuSans-68"/>
      <use x="77.001953" xlink:href="#DejaVuSans-101"/>
      <use x="138.525391" xlink:href="#DejaVuSans-112"/>
      <use x="202.001953" xlink:href="#DejaVuSans-116"/>
      <use x="241.210938" xlink:href="#DejaVuSans-104"/>
      <use x="304.589844" xlink:href="#DejaVuSans-32"/>
      <use x="336.376953" xlink:href="#DejaVuSans-40"/>
      <use x="375.390625" xlink:href="#DejaVuSans-109"/>
      <use x="472.802734" xlink:href="#DejaVuSans-41"/>
     </g>
    </g>
   </g>
   <g id="line2d_13">
    <path clip-path="url(#pe9e4f52c14)" d="M 166.742584 53.568 
L 166.783296 54.868645 
L 167.068385 56.16929 
L 167.842188 57.469935 
L 169.34904 58.770581 
L 171.797155 60.071226 
L 178.394815 62.672516 
L 227.621661 63.973161 
L 252.455747 65.273806 
L 252.455747 71.777032 
L 238.332482 73.077677 
L 201.739431 74.378323 
L 199.562931 75.678968 
L 199.562931 82.182194 
L 206.837904 83.482839 
L 252.012241 84.783484 
L 257.778952 86.084129 
L 256.389036 87.384774 
L 232.494264 88.685419 
L 204.190156 89.986065 
L 203.048187 91.28671 
L 205.539329 95.188645 
L 204.957327 96.48929 
L 200.527081 97.789935 
L 199.590483 99.090581 
L 199.562931 104.293161 
L 201.163788 105.593806 
L 255.980968 108.195097 
L 257.778952 109.495742 
L 254.335093 110.796387 
L 219.610407 112.097032 
L 203.811935 113.397677 
L 204.141632 114.698323 
L 212.368144 123.802839 
L 215.282368 127.704774 
L 217.153396 130.306065 
L 219.458729 131.60671 
L 240.994211 132.907355 
L 252.477561 134.208 
L 253.466653 135.508645 
L 248.843796 136.80929 
L 233.058211 138.109935 
L 231.905156 139.410581 
L 231.905156 153.717677 
L 237.328546 155.018323 
L 277.513555 156.318968 
L 285.808899 157.619613 
L 285.808899 158.920258 
L 285.241899 160.220903 
L 261.115215 161.521548 
L 212.351899 162.822194 
L 209.401953 164.122839 
L 216.476167 173.227355 
L 217.289777 174.528 
L 217.938769 175.828645 
L 218.40789 177.12929 
L 223.84543 178.429935 
L 250.642897 179.730581 
L 253.466653 181.031226 
L 253.466653 182.331871 
L 248.843796 183.632516 
L 230.841925 184.933161 
L 221.826324 186.233806 
L 226.096374 187.534452 
L 245.150126 188.835097 
L 245.028759 190.135742 
L 225.208426 191.436387 
L 221.124396 192.737032 
L 221.124396 194.037677 
L 223.00111 195.338323 
L 231.171307 196.638968 
L 231.905156 197.939613 
L 231.905156 200.540903 
L 239.246214 201.841548 
L 280.960699 203.142194 
L 285.808899 204.442839 
L 285.808899 218.749935 
L 279.14269 220.050581 
L 257.181989 221.351226 
L 255.622803 222.651871 
L 255.622803 225.253161 
L 257.161165 226.553806 
L 263.676485 227.854452 
L 264.247402 229.155097 
L 264.247402 230.455742 
L 261.632902 231.756387 
L 252.051806 233.057032 
L 251.310503 234.357677 
L 251.310503 239.560258 
L 252.23451 240.860903 
L 263.85801 242.161548 
L 291.202621 243.462194 
L 305.793838 244.762839 
L 307.370396 246.063484 
L 307.370396 295.488 
L 307.370396 295.488 
" style="fill:none;stroke:#000000;stroke-dasharray:5.55,2.4;stroke-dashoffset:0;stroke-width:1.5;"/>
   </g>
   <g id="line2d_14">
    <path clip-path="url(#pe9e4f52c14)" d="M 168.911624 53.568 
L 168.911624 54.868645 
L 167.982457 56.16929 
L 167.982457 57.469935 
L 170.610626 58.770581 
L 170.610626 60.071226 
L 164.949604 61.371871 
L 164.949604 62.672516 
L 191.943637 63.973161 
L 191.943637 65.273806 
L 230.989157 66.574452 
L 230.989157 67.875097 
L 252.313092 69.175742 
L 252.313092 70.476387 
L 253.502141 71.777032 
L 253.502141 73.077677 
L 236.15597 74.378323 
L 236.15597 75.678968 
L 206.581693 76.979613 
L 206.581693 78.280258 
L 189.337979 79.580903 
L 189.337979 80.881548 
L 204.722425 82.182194 
L 204.722425 83.482839 
L 223.8505 84.783484 
L 223.8505 86.084129 
L 229.040551 87.384774 
L 229.040551 88.685419 
L 220.962896 89.986065 
L 220.962896 91.28671 
L 208.725253 92.587355 
L 208.725253 93.888 
L 204.229106 95.188645 
L 204.229106 96.48929 
L 205.452965 97.789935 
L 205.452965 99.090581 
L 200.986636 100.391226 
L 200.986636 101.691871 
L 195.620281 102.992516 
L 195.620281 104.293161 
L 206.841328 105.593806 
L 206.841328 106.894452 
L 226.08944 108.195097 
L 226.08944 109.495742 
L 236.22263 110.796387 
L 236.22263 112.097032 
L 231.568306 113.397677 
L 231.568306 114.698323 
L 215.316836 115.998968 
L 215.316836 117.299613 
L 202.195926 118.600258 
L 202.195926 119.900903 
L 206.40348 121.201548 
L 206.40348 122.502194 
L 215.454043 123.802839 
L 215.454043 125.103484 
L 217.656944 126.404129 
L 217.656944 127.704774 
L 217.029784 129.005419 
L 217.029784 130.306065 
L 222.287944 131.60671 
L 222.287944 132.907355 
L 233.15738 134.208 
L 233.15738 135.508645 
L 242.752123 136.80929 
L 242.752123 138.109935 
L 246.686302 139.410581 
L 246.686302 140.711226 
L 244.345895 142.011871 
L 244.345895 143.312516 
L 237.588732 144.613161 
L 237.588732 145.913806 
L 230.487447 147.214452 
L 230.487447 148.515097 
L 229.544038 149.815742 
L 229.544038 151.116387 
L 238.410872 152.417032 
L 238.410872 153.717677 
L 251.656848 155.018323 
L 251.656848 156.318968 
L 261.202347 157.619613 
L 261.202347 158.920258 
L 262.489354 160.220903 
L 262.489354 161.521548 
L 254.736943 162.822194 
L 254.736943 164.122839 
L 240.779919 165.423484 
L 240.779919 166.724129 
L 227.131232 168.024774 
L 227.131232 169.325419 
L 219.926883 170.626065 
L 219.926883 171.92671 
L 218.860146 173.227355 
L 218.860146 174.528 
L 221.453541 175.828645 
L 221.453541 177.12929 
L 227.48572 178.429935 
L 227.48572 179.730581 
L 235.720837 181.031226 
L 235.720837 182.331871 
L 243.082984 183.632516 
L 243.082984 184.933161 
L 246.97368 186.233806 
L 246.97368 187.534452 
L 246.466985 188.835097 
L 246.466985 190.135742 
L 242.177462 191.436387 
L 242.177462 192.737032 
L 235.831583 194.037677 
L 235.831583 195.338323 
L 229.975698 196.638968 
L 229.975698 197.939613 
L 228.055101 199.240258 
L 228.055101 200.540903 
L 233.793353 201.841548 
L 233.793353 203.142194 
L 247.490035 204.442839 
L 247.490035 205.743484 
L 264.504028 207.044129 
L 264.504028 208.344774 
L 279.686811 209.645419 
L 279.686811 210.946065 
L 290.199636 212.24671 
L 290.199636 213.547355 
L 295.232679 214.848 
L 295.229682 218.749935 
L 291.445824 220.050581 
L 291.445824 221.351226 
L 285.670836 222.651871 
L 285.670836 223.952516 
L 279.792909 225.253161 
L 279.792909 226.553806 
L 275.080878 227.854452 
L 275.080878 229.155097 
L 271.619004 230.455742 
L 271.619004 231.756387 
L 268.602068 233.057032 
L 268.602068 234.357677 
L 265.439064 235.658323 
L 265.439064 236.958968 
L 262.752965 238.259613 
L 262.752965 239.560258 
L 262.327858 240.860903 
L 262.327858 242.161548 
L 265.660657 243.462194 
L 265.660657 244.762839 
L 272.367679 246.063484 
L 272.367679 247.364129 
L 280.402912 248.664774 
L 280.402912 249.965419 
L 287.603914 251.266065 
L 287.603914 252.56671 
L 292.719992 253.867355 
L 292.719992 255.168 
L 295.519564 256.468645 
L 295.519564 257.76929 
L 296.481285 259.069935 
L 296.407822 262.971871 
L 296.075912 264.272516 
L 295.992423 268.174452 
L 296.320741 269.475097 
L 296.320741 270.775742 
L 296.970263 272.076387 
L 296.970263 273.377032 
L 297.75515 274.677677 
L 297.75515 275.978323 
L 298.519425 277.278968 
L 298.519425 278.579613 
L 299.18526 279.880258 
L 299.18526 281.180903 
L 299.741603 282.481548 
L 299.741603 283.782194 
L 300.211849 285.082839 
L 300.211849 286.383484 
L 300.627019 287.684129 
L 300.627019 288.984774 
L 301.011504 290.285419 
L 301.011504 291.586065 
L 301.377898 292.88671 
L 301.377898 294.187355 
L 301.72771 295.488 
L 301.72771 295.488 
" style="fill:none;stroke:#0000ff;stroke-dasharray:9.6,2.4,1.5,2.4;stroke-dashoffset:0;stroke-width:1.5;"/>
   </g>
   <g id="line2d_15">
    <path clip-path="url(#pe9e4f52c14)" d="M 168.810505 53.568 
L 166.677872 54.868645 
L 165.859751 56.16929 
L 166.281723 57.469935 
L 172.605629 58.770581 
L 172.028385 60.071226 
L 168.70067 61.371871 
L 189.120134 62.672516 
L 219.476297 63.973161 
L 258.397139 66.574452 
L 266.246706 67.875097 
L 261.982795 69.175742 
L 254.380726 70.476387 
L 237.420683 73.077677 
L 222.807745 74.378323 
L 196.431548 75.678968 
L 195.131136 76.979613 
L 201.745119 78.280258 
L 205.305169 79.580903 
L 193.899242 80.881548 
L 196.61201 82.182194 
L 219.175228 83.482839 
L 238.951962 84.783484 
L 251.418355 86.084129 
L 253.325853 87.384774 
L 244.347433 88.685419 
L 206.632581 91.28671 
L 200.879728 92.587355 
L 206.453304 93.888 
L 209.183213 95.188645 
L 208.43988 96.48929 
L 201.91542 97.789935 
L 199.216827 99.090581 
L 194.74313 100.391226 
L 195.606535 101.691871 
L 192.561583 102.992516 
L 188.996761 104.293161 
L 200.735143 105.593806 
L 248.860688 108.195097 
L 261.787706 109.495742 
L 261.590413 110.796387 
L 250.941962 112.097032 
L 233.715784 113.397677 
L 219.691355 114.698323 
L 210.71369 115.998968 
L 213.041478 117.299613 
L 221.186439 118.600258 
L 221.025299 119.900903 
L 218.184132 121.201548 
L 223.123078 125.103484 
L 223.34277 126.404129 
L 221.601463 127.704774 
L 219.096641 129.005419 
L 211.406466 131.60671 
L 214.717193 132.907355 
L 241.016988 135.508645 
L 247.551932 136.80929 
L 249.639302 138.109935 
L 247.341377 139.410581 
L 243.256371 140.711226 
L 240.612854 142.011871 
L 240.572536 143.312516 
L 241.534044 144.613161 
L 241.22604 145.913806 
L 241.66669 147.214452 
L 242.960485 148.515097 
L 242.819487 149.815742 
L 241.218413 151.116387 
L 234.832636 152.417032 
L 229.290034 153.717677 
L 226.592586 155.018323 
L 235.121213 156.318968 
L 250.637131 157.619613 
L 267.555994 158.920258 
L 278.222398 160.220903 
L 280.17791 161.521548 
L 271.989654 162.822194 
L 255.890452 164.122839 
L 233.000507 165.423484 
L 213.3148 166.724129 
L 210.048691 168.024774 
L 218.435365 169.325419 
L 223.967745 170.626065 
L 222.356861 171.92671 
L 218.211861 173.227355 
L 215.446596 174.528 
L 213.803029 175.828645 
L 211.938561 177.12929 
L 208.855843 178.429935 
L 214.518826 179.730581 
L 227.830974 181.031226 
L 243.790696 182.331871 
L 253.46436 183.632516 
L 255.418161 184.933161 
L 250.075388 186.233806 
L 241.325781 187.534452 
L 234.162114 188.835097 
L 233.29415 190.135742 
L 237.134199 191.436387 
L 240.223977 192.737032 
L 238.292737 194.037677 
L 226.331905 196.638968 
L 225.492456 197.939613 
L 227.601282 199.240258 
L 226.776891 200.540903 
L 223.624544 201.841548 
L 226.618816 203.142194 
L 239.797337 204.442839 
L 254.802348 205.743484 
L 267.925911 207.044129 
L 276.101739 208.344774 
L 282.975713 209.645419 
L 287.118637 210.946065 
L 287.40635 212.24671 
L 289.102291 213.547355 
L 289.74993 214.848 
L 291.551122 216.148645 
L 293.886479 217.44929 
L 295.692241 218.749935 
L 296.437282 220.050581 
L 293.501066 221.351226 
L 288.113265 222.651871 
L 281.569621 223.952516 
L 275.802576 225.253161 
L 271.458639 226.553806 
L 269.775442 227.854452 
L 271.45779 229.155097 
L 276.479249 230.455742 
L 279.724535 231.756387 
L 281.314605 233.057032 
L 279.815464 234.357677 
L 275.980801 235.658323 
L 270.82976 236.958968 
L 265.145324 238.259613 
L 260.355422 239.560258 
L 258.104592 240.860903 
L 258.682678 242.161548 
L 262.134688 243.462194 
L 267.77279 244.762839 
L 280.817763 247.364129 
L 285.627362 248.664774 
L 289.611193 249.965419 
L 292.531482 251.266065 
L 296.278673 253.867355 
L 298.764598 256.468645 
L 300.146725 259.069935 
L 300.371291 260.370581 
L 300.116039 261.671226 
L 300.354334 262.971871 
L 300.904129 264.272516 
L 302.243052 269.475097 
L 302.875833 270.775742 
L 301.8882 272.076387 
L 302.61425 274.677677 
L 305.028531 281.180903 
L 304.349212 282.481548 
L 304.231582 283.782194 
L 303.40762 287.684129 
L 303.47893 288.984774 
L 303.868926 290.285419 
L 304.646855 291.586065 
L 304.778299 292.88671 
L 305.913839 294.187355 
L 307.288476 295.488 
L 307.288476 295.488 
" style="fill:none;stroke:#ff0000;stroke-linecap:square;stroke-width:1.5;"/>
   </g>
   <g id="patch_3">
    <path d="M 157.828564 307.584 
L 157.828564 41.472 
" style="fill:none;stroke:#000000;stroke-linecap:square;stroke-linejoin:miter;stroke-width:0.8;"/>
   </g>
   <g id="patch_4">
    <path d="M 314.491436 307.584 
L 314.491436 41.472 
" style="fill:none;stroke:#000000;stroke-linecap:square;stroke-linejoin:miter;stroke-width:0.8;"/>
   </g>
   <g id="patch_5">
    <path d="M 157.828564 307.584 
L 314.491436 307.584 
" style="fill:none;stroke:#000000;stroke-linecap:square;stroke-linejoin:miter;stroke-width:0.8;"/>
   </g>
   <g id="patch_6">
    <path d="M 157.828564 41.472 
L 314.491436 41.472 
" style="fill:none;stroke:#000000;stroke-linecap:square;stroke-linejoin:miter;stroke-width:0.8;"/>
   </g>
   <g id="legend_1">
    <g id="line2d_16">
     <path d="M 166.828564 263.648062 
L 186.828564 263.648062 
" style="fill:none;stroke:#000000;stroke-dasharray:5.55,2.4;stroke-dashoffset:0;stroke-width:1.5;"/>
    </g>
    <g id="line2d_17"/>
    <g id="text_15">
     <!-- True Model -->
     <g transform="translate(194.828564 267.148062)scale(0.1 -0.1)">
      <defs>
       <path d="M -0.296875 72.90625 
L 61.375 72.90625 
L 61.375 64.59375 
L 35.5 64.59375 
L 35.5 0 
L 25.59375 0 
L 25.59375 64.59375 
L -0.296875 64.59375 
z
" id="DejaVuSans-84"/>
       <path d="M 41.109375 46.296875 
Q 39.59375 47.171875 37.8125 47.578125 
Q 36.03125 48 33.890625 48 
Q 26.265625 48 22.1875 43.046875 
Q 18.109375 38.09375 18.109375 28.8125 
L 18.109375 0 
L 9.078125 0 
L 9.078125 54.6875 
L 18.109375 54.6875 
L 18.109375 46.1875 
Q 20.953125 51.171875 25.484375 53.578125 
Q 30.03125 56 36.53125 56 
Q 37.453125 56 38.578125 55.875 
Q 39.703125 55.765625 41.0625 55.515625 
z
" id="DejaVuSans-114"/>
       <path d="M 8.5 21.578125 
L 8.5 54.6875 
L 17.484375 54.6875 
L 17.484375 21.921875 
Q 17.484375 14.15625 20.5 10.265625 
Q 23.53125 6.390625 29.59375 6.390625 
Q 36.859375 6.390625 41.078125 11.03125 
Q 45.3125 15.671875 45.3125 23.6875 
L 45.3125 54.6875 
L 54.296875 54.6875 
L 54.296875 0 
L 45.3125 0 
L 45.3125 8.40625 
Q 42.046875 3.421875 37.71875 1 
Q 33.40625 -1.421875 27.6875 -1.421875 
Q 18.265625 -1.421875 13.375 4.4375 
Q 8.5 10.296875 8.5 21.578125 
z
M 31.109375 56 
z
" id="DejaVuSans-117"/>
       <path d="M 9.8125 72.90625 
L 24.515625 72.90625 
L 43.109375 23.296875 
L 61.8125 72.90625 
L 76.515625 72.90625 
L 76.515625 0 
L 66.890625 0 
L 66.890625 64.015625 
L 48.09375 14.015625 
L 38.1875 14.015625 
L 19.390625 64.015625 
L 19.390625 0 
L 9.8125 0 
z
" id="DejaVuSans-77"/>
       <path d="M 45.40625 46.390625 
L 45.40625 75.984375 
L 54.390625 75.984375 
L 54.390625 0 
L 45.40625 0 
L 45.40625 8.203125 
Q 42.578125 3.328125 38.25 0.953125 
Q 33.9375 -1.421875 27.875 -1.421875 
Q 17.96875 -1.421875 11.734375 6.484375 
Q 5.515625 14.40625 5.515625 27.296875 
Q 5.515625 40.1875 11.734375 48.09375 
Q 17.96875 56 27.875 56 
Q 33.9375 56 38.25 53.625 
Q 42.578125 51.265625 45.40625 46.390625 
z
M 14.796875 27.296875 
Q 14.796875 17.390625 18.875 11.75 
Q 22.953125 6.109375 30.078125 6.109375 
Q 37.203125 6.109375 41.296875 11.75 
Q 45.40625 17.390625 45.40625 27.296875 
Q 45.40625 37.203125 41.296875 42.84375 
Q 37.203125 48.484375 30.078125 48.484375 
Q 22.953125 48.484375 18.875 42.84375 
Q 14.796875 37.203125 14.796875 27.296875 
z
" id="DejaVuSans-100"/>
      </defs>
      <use xlink:href="#DejaVuSans-84"/>
      <use x="46.333984" xlink:href="#DejaVuSans-114"/>
      <use x="87.447266" xlink:href="#DejaVuSans-117"/>
      <use x="150.826172" xlink:href="#DejaVuSans-101"/>
      <use x="212.349609" xlink:href="#DejaVuSans-32"/>
      <use x="244.136719" xlink:href="#DejaVuSans-77"/>
      <use x="330.416016" xlink:href="#DejaVuSans-111"/>
      <use x="391.597656" xlink:href="#DejaVuSans-100"/>
      <use x="455.074219" xlink:href="#DejaVuSans-101"/>
      <use x="516.597656" xlink:href="#DejaVuSans-108"/>
     </g>
    </g>
    <g id="line2d_18">
     <path d="M 166.828564 278.326188 
L 186.828564 278.326188 
" style="fill:none;stroke:#0000ff;stroke-dasharray:9.6,2.4,1.5,2.4;stroke-dashoffset:0;stroke-width:1.5;"/>
    </g>
    <g id="line2d_19"/>
    <g id="text_16">
     <!-- FWI (10Hz) -->
     <g transform="translate(194.828564 281.826188)scale(0.1 -0.1)">
      <defs>
       <path d="M 9.8125 72.90625 
L 51.703125 72.90625 
L 51.703125 64.59375 
L 19.671875 64.59375 
L 19.671875 43.109375 
L 48.578125 43.109375 
L 48.578125 34.8125 
L 19.671875 34.8125 
L 19.671875 0 
L 9.8125 0 
z
" id="DejaVuSans-70"/>
       <path d="M 3.328125 72.90625 
L 13.28125 72.90625 
L 28.609375 11.28125 
L 43.890625 72.90625 
L 54.984375 72.90625 
L 70.3125 11.28125 
L 85.59375 72.90625 
L 95.609375 72.90625 
L 77.296875 0 
L 64.890625 0 
L 49.515625 63.28125 
L 33.984375 0 
L 21.578125 0 
z
" id="DejaVuSans-87"/>
       <path d="M 9.8125 72.90625 
L 19.671875 72.90625 
L 19.671875 0 
L 9.8125 0 
z
" id="DejaVuSans-73"/>
       <path d="M 9.8125 72.90625 
L 19.671875 72.90625 
L 19.671875 43.015625 
L 55.515625 43.015625 
L 55.515625 72.90625 
L 65.375 72.90625 
L 65.375 0 
L 55.515625 0 
L 55.515625 34.71875 
L 19.671875 34.71875 
L 19.671875 0 
L 9.8125 0 
z
" id="DejaVuSans-72"/>
       <path d="M 5.515625 54.6875 
L 48.1875 54.6875 
L 48.1875 46.484375 
L 14.40625 7.171875 
L 48.1875 7.171875 
L 48.1875 0 
L 4.296875 0 
L 4.296875 8.203125 
L 38.09375 47.515625 
L 5.515625 47.515625 
z
" id="DejaVuSans-122"/>
      </defs>
      <use xlink:href="#DejaVuSans-70"/>
      <use x="57.519531" xlink:href="#DejaVuSans-87"/>
      <use x="156.396484" xlink:href="#DejaVuSans-73"/>
      <use x="185.888672" xlink:href="#DejaVuSans-32"/>
      <use x="217.675781" xlink:href="#DejaVuSans-40"/>
      <use x="256.689453" xlink:href="#DejaVuSans-49"/>
      <use x="320.3125" xlink:href="#DejaVuSans-48"/>
      <use x="383.935547" xlink:href="#DejaVuSans-72"/>
      <use x="459.130859" xlink:href="#DejaVuSans-122"/>
      <use x="511.621094" xlink:href="#DejaVuSans-41"/>
     </g>
    </g>
    <g id="line2d_20">
     <path d="M 166.828564 293.004312 
L 186.828564 293.004312 
" style="fill:none;stroke:#ff0000;stroke-linecap:square;stroke-width:1.5;"/>
    </g>
    <g id="line2d_21"/>
    <g id="text_17">
     <!-- FWI (20Hz) -->
     <g transform="translate(194.828564 296.504312)scale(0.1 -0.1)">
      <use xlink:href="#DejaVuSans-70"/>
      <use x="57.519531" xlink:href="#DejaVuSans-87"/>
      <use x="156.396484" xlink:href="#DejaVuSans-73"/>
      <use x="185.888672" xlink:href="#DejaVuSans-32"/>
      <use x="217.675781" xlink:href="#DejaVuSans-40"/>
      <use x="256.689453" xlink:href="#DejaVuSans-50"/>
      <use x="320.3125" xlink:href="#DejaVuSans-48"/>
      <use x="383.935547" xlink:href="#DejaVuSans-72"/>
      <use x="459.130859" xlink:href="#DejaVuSans-122"/>
      <use x="511.621094" xlink:href="#DejaVuSans-41"/>
     </g>
    </g>
   </g>
  </g>
 </g>
 <defs>
  <clipPath id="pe9e4f52c14">
   <rect height="266.112" width="156.662872" x="157.828564" y="41.472"/>
  </clipPath>
 </defs>
</svg>
